<?xml version="1.0" standalone="no"?>
<!DOCTYPE svg PUBLIC "-//W3C//DTD SVG 20010904//EN"
 "http://www.w3.org/TR/2001/REC-SVG-20010904/DTD/svg10.dtd">
<svg version="1.0" xmlns="http://www.w3.org/2000/svg"
 width="300.000000pt" height="300.000000pt" viewBox="0 0 300.000000 300.000000"
 preserveAspectRatio="xMidYMid meet">
<metadata>
Created by potrace 1.11, written by Peter Selinger 2001-2013
</metadata>
<g transform="translate(0.000000,300.000000) scale(0.100000,-0.100000)"
fill="#000000" stroke="none">
<path d="M0 1500 l0 -1500 1500 0 1500 0 0 1500 0 1500 -1500 0 -1500 0 0
-1500z m2008 578 l-3 -163 -320 0 -320 0 0 -120 0 -120 315 -5 315 -5 0 -160
0 -160 -317 -3 -318 -2 0 -125 0 -126 323 1 c177 0 328 0 335 0 10 0 12 -37
10 -167 l-3 -168 -520 0 -520 0 -3 743 -2 742 515 0 515 0 -2 -162z"/>
</g>
</svg>
