<?xml version="1.0" standalone="no"?>
<!DOCTYPE svg PUBLIC "-//W3C//DTD SVG 20010904//EN"
 "http://www.w3.org/TR/2001/REC-SVG-20010904/DTD/svg10.dtd">
<svg version="1.0" xmlns="http://www.w3.org/2000/svg"
 width="200.000000pt" height="200.000000pt" viewBox="0 0 200.000000 200.000000"
 preserveAspectRatio="xMidYMid meet">
<metadata>
Created by potrace 1.11, written by Peter Selinger 2001-2013
</metadata>
<g transform="translate(0.000000,200.000000) scale(0.100000,-0.100000)"
fill="#000000" stroke="none">
<path d="M0 1000 l0 -1000 1000 0 1000 0 0 1000 0 1000 -1000 0 -1000 0 0
-1000z m1030 390 c0 -6 -12 -15 -27 -21 -42 -16 -63 -39 -63 -70 0 -44 148
-450 167 -456 5 -2 23 36 40 84 17 49 54 151 82 228 28 77 51 149 51 161 0 25
-18 43 -56 53 -15 4 -29 12 -32 19 -3 9 32 12 137 12 83 0 141 -4 141 -10 0
-5 -20 -18 -45 -29 -27 -12 -52 -33 -65 -53 -18 -30 -165 -393 -285 -703 -25
-66 -50 -124 -55 -129 -11 -11 -6 -24 -140 336 -176 476 -205 532 -287 559
-18 6 -31 15 -28 20 9 13 465 12 465 -1z"/>
</g>
</svg>
