<?xml version="1.0" encoding="utf-8"?>
<!-- Generator: Adobe Illustrator 23.1.1, SVG Export Plug-In . SVG Version: 6.00 Build 0)  -->
<svg version="1.1" id="Layer_1" xmlns="http://www.w3.org/2000/svg" xmlns:xlink="http://www.w3.org/1999/xlink" x="0px" y="0px"
	 viewBox="0 0 1224 286.72" style="enable-background:new 0 0 1224 286.72;" xml:space="preserve">
<style type="text/css">
	.st0{fill:#FFFFFF;}
</style>
<g>
	<path class="st0" d="M158.54,91.66c0.69-2.5,0.66-4.54-0.1-6.1c-0.76-1.56-1.86-2.82-3.28-3.75c-1.42-0.94-2.97-1.63-4.64-2.09
		c-1.67-0.45-3.02-0.82-4.07-1.09c-0.63-0.14-1.04-0.4-1.25-0.78c-0.21-0.38-0.28-0.76-0.21-1.15c0.07-0.38,0.26-0.71,0.57-0.99
		c0.31-0.28,0.75-0.42,1.3-0.42h38.58c0.49,0,0.89,0.14,1.2,0.42c0.31,0.28,0.5,0.61,0.57,0.99c0.07,0.38-0.02,0.75-0.26,1.09
		c-0.24,0.35-0.64,0.59-1.2,0.73c-3.69,0.97-7,2.47-9.96,4.48c-2.96,2.02-5.34,5.11-7.14,9.28c-0.97,2.23-2.28,5.42-3.91,9.59
		c-1.63,4.17-3.51,8.97-5.63,14.39c-2.12,5.42-4.38,11.3-6.78,17.62c-2.4,6.33-4.85,12.79-7.35,19.4c-2.5,6.61-4.97,13.14-7.4,19.61
		c-2.43,6.46-4.71,12.55-6.83,18.25c-2.12,5.7-4.05,10.86-5.79,15.48c-1.74,4.62-3.13,8.33-4.17,11.11
		c-0.35,0.83-0.89,1.28-1.62,1.35c-0.73,0.07-1.27-0.35-1.62-1.25c-0.9-2.57-2.1-5.98-3.6-10.22c-1.5-4.24-3.2-9.05-5.11-14.44
		c-1.91-5.39-3.96-11.14-6.15-17.26c-2.19-6.12-4.42-12.32-6.67-18.61c-2.26-6.29-4.5-12.48-6.72-18.56
		c-2.23-6.08-4.33-11.76-6.31-17.05c-1.98-5.28-3.79-10.01-5.42-14.18c-1.63-4.17-3.01-7.44-4.12-9.8
		c-2.64-5.7-5.58-10.1-8.81-13.19c-3.23-3.09-6.83-5.02-10.79-5.79c-0.56-0.07-0.94-0.3-1.15-0.68c-0.21-0.38-0.28-0.78-0.21-1.2
		c0.07-0.42,0.28-0.78,0.63-1.09c0.35-0.31,0.83-0.47,1.46-0.47h65.48c0.49,0,0.89,0.14,1.2,0.42c0.31,0.28,0.52,0.61,0.63,0.99
		c0.1,0.38,0.03,0.75-0.21,1.09c-0.24,0.35-0.71,0.63-1.41,0.83c-0.49,0.14-1.2,0.35-2.14,0.63c-0.94,0.28-1.96,0.68-3.08,1.2
		c-1.11,0.52-2.23,1.18-3.34,1.98c-1.11,0.8-2.03,1.82-2.76,3.08c-0.73,1.25-1.22,2.73-1.46,4.43c-0.24,1.7-0.05,3.7,0.57,6
		c0.69,2.71,1.69,5.96,2.97,9.75c1.29,3.79,2.69,7.84,4.22,12.15c1.53,4.31,3.11,8.71,4.74,13.19c1.63,4.48,3.21,8.74,4.74,12.77
		c1.53,4.03,2.92,7.68,4.17,10.95c1.25,3.27,2.22,5.84,2.92,7.72c0.28,0.62,0.64,0.92,1.09,0.89c0.45-0.03,0.78-0.33,0.99-0.89
		c0.69-1.94,1.68-4.69,2.97-8.24c1.29-3.54,2.71-7.51,4.27-11.89c1.56-4.38,3.21-9,4.95-13.87c1.74-4.87,3.41-9.59,5.01-14.18
		c1.6-4.59,3.04-8.86,4.33-12.83C156.75,97.5,157.78,94.23,158.54,91.66z"/>
	<path class="st0" d="M208.8,119.6c7.16,0,13.75,1.27,19.76,3.81c6.01,2.54,11.17,6.01,15.49,10.43c4.31,4.42,7.68,9.61,10.11,15.59
		c2.43,5.98,3.65,12.37,3.65,19.19c0,6.88-1.32,13.35-3.96,19.39c-2.64,6.05-6.26,11.35-10.84,15.9
		c-4.59,4.55-9.99,8.15-16.21,10.79c-6.22,2.64-12.91,3.96-20.07,3.96c-7.16,0-13.75-1.27-19.76-3.81
		c-6.01-2.54-11.18-6.01-15.49-10.43c-4.31-4.41-7.68-9.59-10.11-15.54c-2.43-5.94-3.65-12.36-3.65-19.24
		c0-6.81,1.32-13.26,3.96-19.34c2.64-6.08,6.26-11.4,10.84-15.95c4.59-4.55,9.99-8.15,16.21-10.79
		C194.95,120.92,201.64,119.6,208.8,119.6z M207.76,213.14c3.34,0,6.24-1.15,8.71-3.44c2.47-2.29,4.52-5.44,6.15-9.44
		c1.63-4,2.87-8.67,3.7-14.02c0.83-5.35,1.25-11.05,1.25-17.1c0-6.05-0.42-11.75-1.25-17.1c-0.83-5.35-2.07-10.03-3.7-14.02
		c-1.63-4-3.69-7.14-6.15-9.44c-2.47-2.29-5.37-3.44-8.71-3.44c-3.34,0-6.24,1.15-8.71,3.44c-2.47,2.29-4.54,5.44-6.2,9.44
		c-1.67,4-2.9,8.67-3.7,14.02c-0.8,5.36-1.2,11.05-1.2,17.1c0,6.05,0.4,11.75,1.2,17.1c0.8,5.35,2.03,10.03,3.7,14.02
		c1.67,4,3.74,7.14,6.2,9.44C201.52,211.99,204.42,213.14,207.76,213.14z"/>
	<path class="st0" d="M297.62,199.16c0,2.85,0.61,5.15,1.82,6.88c1.22,1.74,2.61,3.11,4.17,4.12c1.56,1.01,3.09,1.72,4.59,2.14
		c1.49,0.42,2.52,0.66,3.08,0.73c0.56,0.14,0.96,0.36,1.2,0.68c0.24,0.31,0.33,0.64,0.26,0.99c-0.07,0.35-0.26,0.66-0.57,0.94
		c-0.31,0.28-0.75,0.42-1.3,0.42h-54.64c-0.56,0-0.99-0.14-1.3-0.42c-0.31-0.28-0.5-0.59-0.57-0.94c-0.07-0.35,0.02-0.68,0.26-0.99
		c0.24-0.31,0.64-0.54,1.2-0.68c0.56-0.07,1.58-0.31,3.08-0.73c1.49-0.42,3.02-1.13,4.59-2.14c1.56-1.01,2.95-2.38,4.17-4.12
		c1.22-1.74,1.82-4.03,1.82-6.88V82.27c0-0.9-0.42-1.46-1.25-1.67c-0.14,0-0.64-0.1-1.51-0.31c-0.87-0.21-1.86-0.45-2.97-0.73
		c-1.11-0.28-2.14-0.52-3.08-0.73c-0.94-0.21-1.51-0.35-1.72-0.42c-0.9-0.21-1.37-0.68-1.41-1.41c-0.03-0.73,0.47-1.23,1.51-1.51
		c2.71-0.63,5.65-1.48,8.81-2.55c3.16-1.08,6.34-2.29,9.54-3.65c3.2-1.36,6.29-2.82,9.28-4.38c2.99-1.56,5.67-3.15,8.03-4.74
		c0.63-0.42,1.27-0.59,1.93-0.52c0.66,0.07,0.99,0.59,0.99,1.56V199.16z"/>
	<path class="st0" d="M421.95,213.03c0.56,0.14,0.96,0.36,1.2,0.68c0.24,0.31,0.33,0.64,0.26,0.99c-0.07,0.35-0.26,0.66-0.57,0.94
		c-0.31,0.28-0.75,0.42-1.3,0.42h-37.75c-0.76,0-1.37-0.17-1.82-0.52c-0.45-0.35-0.68-0.9-0.68-1.67v-6.15
		c-2.92,2.92-6.71,5.47-11.37,7.66c-4.66,2.19-10.43,3.28-17.31,3.28c-5.7,0-10.48-0.63-14.34-1.88c-3.86-1.25-7.06-2.92-9.59-5
		c-2.54-2.09-4.48-4.49-5.84-7.2c-1.36-2.71-2.33-5.53-2.92-8.45c-0.59-2.92-0.94-5.82-1.04-8.71c-0.1-2.88-0.16-5.58-0.16-8.08
		v-40.77c0-2.78-0.56-5.02-1.67-6.73c-1.11-1.7-2.38-3.02-3.81-3.96c-1.43-0.94-2.82-1.58-4.17-1.93c-1.36-0.35-2.31-0.59-2.87-0.73
		c-0.56-0.07-0.96-0.28-1.2-0.63c-0.24-0.35-0.33-0.69-0.26-1.04c0.07-0.35,0.26-0.66,0.57-0.94c0.31-0.28,0.75-0.42,1.3-0.42h37.75
		c1.67,0,2.5,0.9,2.5,2.71v61c0.07,2.78,0.33,5.56,0.78,8.34c0.45,2.78,1.29,5.3,2.5,7.56c1.22,2.26,2.92,4.08,5.11,5.47
		c2.19,1.39,5.13,2.09,8.81,2.09c3.89,0,6.97-0.82,9.23-2.45c2.26-1.63,3.98-3.7,5.16-6.2c1.18-2.51,1.95-5.27,2.29-8.29
		c0.35-3.02,0.52-5.93,0.52-8.71v-45.15c0-2.78-0.56-5.02-1.67-6.73c-1.11-1.7-2.38-3.02-3.81-3.96c-1.43-0.94-2.82-1.58-4.17-1.93
		c-1.36-0.35-2.31-0.59-2.87-0.73c-0.56-0.07-0.96-0.28-1.2-0.63c-0.24-0.35-0.33-0.69-0.26-1.04c0.07-0.35,0.26-0.66,0.57-0.94
		c0.31-0.28,0.75-0.42,1.3-0.42h37.75c1.67,0,2.5,0.9,2.5,2.71v74.76c0,2.78,0.56,5.02,1.67,6.73c1.11,1.7,2.38,3.02,3.81,3.96
		c1.42,0.94,2.81,1.6,4.17,1.98C420.44,212.74,421.4,212.96,421.95,213.03z"/>
	<path class="st0" d="M597.12,213.03c0.56,0.14,0.95,0.36,1.2,0.68c0.24,0.31,0.33,0.64,0.26,0.99c-0.07,0.35-0.26,0.66-0.57,0.94
		c-0.31,0.28-0.75,0.42-1.3,0.42h-49.01c-0.56,0-0.99-0.14-1.3-0.42c-0.31-0.28-0.51-0.59-0.57-0.94c-0.07-0.35,0.02-0.68,0.26-0.99
		c0.24-0.31,0.64-0.54,1.2-0.68c0.56-0.07,1.43-0.26,2.61-0.57c1.18-0.31,2.38-0.89,3.6-1.72c1.22-0.83,2.29-2.05,3.23-3.65
		c0.94-1.6,1.41-3.79,1.41-6.57v-48.28c-0.07-2.78-0.31-5.58-0.73-8.39c-0.42-2.82-1.22-5.35-2.4-7.61
		c-1.18-2.26-2.83-4.1-4.95-5.53c-2.12-1.42-4.95-2.14-8.5-2.14c-3.06,0-5.54,0.52-7.46,1.56c-1.91,1.04-3.39,2.38-4.43,4.01
		c-1.04,1.63-1.77,3.46-2.19,5.47c-0.42,2.02-0.66,4.03-0.73,6.05v54.85c0,2.78,0.47,4.97,1.41,6.57c0.94,1.6,2.02,2.82,3.23,3.65
		c1.22,0.84,2.41,1.41,3.6,1.72c1.18,0.31,2.05,0.5,2.61,0.57c0.56,0.14,0.95,0.36,1.2,0.68c0.24,0.31,0.33,0.64,0.26,0.99
		c-0.07,0.35-0.26,0.66-0.57,0.94c-0.31,0.28-0.75,0.42-1.3,0.42h-49.01c-0.56,0-0.99-0.14-1.3-0.42c-0.31-0.28-0.5-0.59-0.57-0.94
		c-0.07-0.35,0.02-0.68,0.26-0.99c0.24-0.31,0.64-0.54,1.2-0.68c0.56-0.07,1.42-0.26,2.61-0.57c1.18-0.31,2.38-0.89,3.6-1.72
		c1.22-0.83,2.29-2.05,3.23-3.65c0.94-1.6,1.41-3.79,1.41-6.57v-48.38c-0.07-2.78-0.31-5.56-0.73-8.34c-0.42-2.78-1.22-5.3-2.4-7.56
		c-1.18-2.26-2.85-4.1-5-5.53c-2.16-1.42-4.97-2.14-8.45-2.14c-3.13,0-5.63,0.52-7.51,1.56c-1.88,1.04-3.35,2.38-4.43,4.01
		c-1.08,1.63-1.81,3.48-2.19,5.53c-0.38,2.05-0.61,4.08-0.68,6.1v54.74c0,2.78,0.47,4.97,1.41,6.57c0.94,1.6,2.02,2.82,3.23,3.65
		c1.21,0.84,2.41,1.41,3.6,1.72c1.18,0.31,2.05,0.5,2.61,0.57c0.56,0.14,0.96,0.36,1.2,0.68c0.24,0.31,0.33,0.64,0.26,0.99
		c-0.07,0.35-0.26,0.66-0.57,0.94c-0.31,0.28-0.75,0.42-1.3,0.42h-49.01c-0.56,0-0.99-0.14-1.3-0.42c-0.31-0.28-0.5-0.59-0.57-0.94
		c-0.07-0.35,0.02-0.68,0.26-0.99c0.24-0.31,0.64-0.54,1.2-0.68c0.56-0.07,1.42-0.26,2.61-0.57c1.18-0.31,2.38-0.89,3.6-1.72
		c1.22-0.83,2.29-2.05,3.23-3.65c0.94-1.6,1.41-3.79,1.41-6.57v-58.81c0-0.9-0.42-1.46-1.25-1.67c-0.14,0-0.64-0.1-1.51-0.31
		c-0.87-0.21-1.86-0.45-2.97-0.73c-1.11-0.28-2.14-0.52-3.08-0.73c-0.94-0.21-1.51-0.35-1.72-0.42c-0.9-0.21-1.37-0.68-1.41-1.41
		c-0.04-0.73,0.47-1.23,1.51-1.51c2.71-0.63,5.65-1.48,8.81-2.55c3.16-1.08,6.34-2.29,9.54-3.65c3.2-1.36,6.29-2.81,9.28-4.38
		c2.99-1.56,5.67-3.15,8.03-4.74c0.63-0.42,1.27-0.59,1.93-0.52c0.66,0.07,0.99,0.59,0.99,1.56v7.72c3.13-2.43,6.86-4.5,11.21-6.2
		c4.34-1.7,9.54-2.55,15.59-2.55c3.96,0,7.47,0.31,10.53,0.94c3.06,0.63,5.72,1.51,7.98,2.66c2.26,1.15,4.19,2.5,5.79,4.07
		c1.6,1.56,2.92,3.28,3.96,5.16c1.53-1.6,3.3-3.16,5.32-4.69c2.02-1.53,4.31-2.9,6.88-4.12c2.57-1.22,5.44-2.19,8.6-2.92
		c3.16-0.73,6.66-1.09,10.48-1.09c5.63,0,10.34,0.63,14.13,1.88c3.79,1.25,6.9,2.92,9.33,5c2.43,2.09,4.28,4.48,5.53,7.19
		c1.25,2.71,2.15,5.53,2.71,8.45c0.56,2.92,0.87,5.82,0.94,8.71c0.07,2.89,0.1,5.58,0.1,8.08v0.52v41.08c0,2.78,0.47,4.97,1.41,6.57
		c0.94,1.6,2.02,2.82,3.23,3.65c1.22,0.84,2.42,1.41,3.6,1.72C595.69,212.77,596.56,212.96,597.12,213.03z"/>
	<path class="st0" d="M626.2,160.79c-1.11,0-1.67,0.59-1.67,1.78c0,7.09,0.63,13.17,1.88,18.25c1.25,5.08,3.08,9.23,5.47,12.46
		c2.4,3.23,5.39,5.61,8.97,7.14c3.58,1.53,7.73,2.29,12.46,2.29c3.61,0,6.83-0.38,9.65-1.14c2.82-0.77,5.27-1.65,7.35-2.66
		c2.09-1.01,3.79-1.96,5.11-2.87c1.32-0.9,2.29-1.49,2.92-1.77c0.97-0.42,1.74-0.33,2.29,0.26c0.56,0.59,0.56,1.48,0,2.66
		c-0.21,0.41-0.68,1.23-1.41,2.45c-0.73,1.22-1.79,2.62-3.18,4.22c-1.39,1.6-3.13,3.27-5.21,5.01c-2.09,1.74-4.57,3.33-7.45,4.79
		c-2.89,1.46-6.19,2.66-9.91,3.6c-3.72,0.94-7.87,1.41-12.46,1.41c-6.95,0-13.24-1.09-18.87-3.28c-5.63-2.19-10.44-5.37-14.44-9.54
		c-4-4.17-7.09-9.24-9.28-15.22c-2.19-5.98-3.28-12.72-3.28-20.23c0-8.2,1.36-15.46,4.07-21.79c2.71-6.33,6.26-11.63,10.64-15.9
		c4.38-4.27,9.35-7.52,14.91-9.75c5.56-2.22,11.23-3.34,17-3.34c5.42,0,10.2,0.75,14.34,2.24c4.14,1.5,7.72,3.44,10.74,5.84
		c3.02,2.4,5.53,5.07,7.51,8.03c1.98,2.96,3.58,5.89,4.8,8.81c1.22,2.92,2.07,5.67,2.55,8.24c0.49,2.57,0.73,4.63,0.73,6.16
		c0,0.69-0.23,1.18-0.68,1.46c-0.45,0.28-1.06,0.41-1.82,0.41H626.2z M625.06,153.91c-0.14,0.9,0.28,1.36,1.25,1.36
		c0.21,0,0.9-0.02,2.09-0.05c1.18-0.03,2.62-0.09,4.33-0.16c1.7-0.07,3.53-0.14,5.47-0.21c1.95-0.07,3.81-0.14,5.58-0.21
		c1.77-0.07,3.3-0.12,4.59-0.16c1.29-0.03,2.1-0.09,2.45-0.16c1.11-0.07,2.28-0.56,3.49-1.46c1.22-0.9,1.82-2.47,1.82-4.69
		c0-2.02-0.28-4.34-0.83-6.99c-0.56-2.64-1.44-5.14-2.66-7.51c-1.22-2.36-2.76-4.36-4.64-6c-1.88-1.63-4.17-2.45-6.88-2.45
		c-2.16,0-4.03,0.57-5.63,1.72c-1.6,1.15-2.97,2.64-4.12,4.48c-1.15,1.84-2.1,3.88-2.87,6.1c-0.77,2.23-1.39,4.4-1.88,6.52
		c-0.49,2.12-0.85,4.07-1.09,5.84C625.28,151.67,625.13,153.01,625.06,153.91z"/>
	<path class="st0" d="M851.96,210.22c0.9,0.7,1.39,1.29,1.46,1.77c0.07,0.49-0.17,1.04-0.73,1.67c-0.35,0.35-0.89,0.82-1.62,1.41
		c-0.73,0.59-1.72,1.14-2.97,1.67c-1.25,0.52-2.83,0.97-4.74,1.36c-1.91,0.38-4.19,0.57-6.83,0.57c-3.34,0-6.31-0.49-8.91-1.46
		c-2.61-0.97-4.95-2.19-7.04-3.65c-2.09-1.46-3.98-3.06-5.68-4.8c-1.7-1.74-3.32-3.34-4.85-4.8c-0.56-0.49-1.25-1.22-2.09-2.19
		c-0.83-0.97-1.81-2.19-2.92-3.65c-0.42-0.55-0.87-0.82-1.36-0.78c-0.49,0.04-0.83,0.33-1.04,0.89c-1.39,2.85-3.06,5.53-5.01,8.03
		c-1.95,2.5-4.21,4.68-6.78,6.52c-2.57,1.84-5.47,3.28-8.71,4.33c-3.23,1.04-6.76,1.56-10.58,1.56c-4.1,0-7.89-0.59-11.37-1.77
		c-3.48-1.18-6.5-2.94-9.07-5.27c-2.57-2.33-4.59-5.21-6.05-8.66c-1.46-3.44-2.19-7.42-2.19-11.94c0-4.59,0.92-8.85,2.76-12.77
		c1.84-3.93,4.22-7.54,7.14-10.84c2.92-3.3,6.15-6.27,9.7-8.92c3.54-2.64,6.99-4.9,10.32-6.78c1.04-0.56,1.25-1.5,0.63-2.82
		c-2.16-4.31-3.82-8.36-5.01-12.15c-1.18-3.79-1.77-7.18-1.77-10.17c0-3.89,0.85-7.26,2.55-10.11c1.7-2.85,3.96-5.21,6.78-7.09
		c2.82-1.88,6.05-3.27,9.7-4.17c3.65-0.9,7.42-1.36,11.31-1.36c2.92,0,5.73,0.38,8.45,1.15c2.71,0.77,5.14,1.91,7.3,3.44
		c2.15,1.53,3.87,3.48,5.16,5.84c1.29,2.36,1.93,5.14,1.93,8.34c0,4.87-1.37,8.99-4.12,12.36c-2.75,3.37-6.34,6.03-10.79,7.98
		c-0.56,0.28-0.94,0.57-1.15,0.89c-0.21,0.31-0.1,0.85,0.31,1.62c2.22,3.96,4.73,8.05,7.51,12.25c2.78,4.21,5.66,8.39,8.65,12.56
		c0.76,1.11,1.53,1.18,2.29,0.21c2.99-3.61,6.03-6.5,9.12-8.65c3.09-2.15,6.41-3.24,9.96-3.24c3.96,0,7.11,1.17,9.44,3.49
		c2.33,2.33,3.49,5.51,3.49,9.54c0,1.32-0.24,2.69-0.73,4.12c-0.49,1.43-1.24,2.71-2.24,3.86c-1.01,1.15-2.26,2.1-3.75,2.87
		c-1.5,0.77-3.25,1.14-5.27,1.14c-4.8,0-8.06-2.15-9.8-6.46c-0.35-0.97-0.75-2.02-1.2-3.13c-0.45-1.11-1.34-1.67-2.66-1.67
		c-0.49,0-1.08,0.19-1.77,0.57c-0.7,0.38-1.43,0.89-2.19,1.51c-0.77,0.63-0.83,1.36-0.21,2.19c2.92,4.1,5.8,8.01,8.65,11.73
		c2.85,3.72,5.47,7.07,7.87,10.06c2.4,2.99,4.54,5.51,6.41,7.56C849.56,208.05,850.98,209.45,851.96,210.22z M789.5,197.08
		c1.81,0,3.55-0.19,5.21-0.57c1.67-0.38,3.2-0.89,4.59-1.51c0.9-0.42,1.36-0.92,1.36-1.51c0-0.59-0.17-1.16-0.52-1.72
		c-1.81-2.36-3.69-4.94-5.63-7.72c-1.95-2.78-3.93-5.72-5.94-8.81c-2.02-3.09-4-6.26-5.94-9.49c-1.95-3.23-3.79-6.45-5.53-9.64
		c-0.28-0.56-0.64-0.83-1.1-0.83c-0.45,0-0.89,0.21-1.3,0.62c-2.29,2.09-4.09,4.71-5.37,7.87c-1.29,3.16-1.93,6.66-1.93,10.48
		c0,3.48,0.56,6.62,1.67,9.44c1.11,2.82,2.66,5.21,4.64,7.2c1.98,1.98,4.31,3.51,6.99,4.59C783.36,196.54,786.3,197.08,789.5,197.08
		z M802.43,111.89c-1.04,0-2.1,0.1-3.18,0.31c-1.08,0.21-2.07,0.63-2.97,1.25c-0.9,0.63-1.65,1.5-2.24,2.61
		c-0.59,1.11-0.89,2.54-0.89,4.28c0,1.88,0.63,4.34,1.88,7.4c1.25,3.06,2.92,6.57,5.01,10.53c0.35,0.56,0.69,0.89,1.04,0.99
		c0.35,0.1,0.9-0.02,1.67-0.36c2.29-1.18,4.12-2.45,5.47-3.81c1.36-1.36,2.4-2.71,3.13-4.07c0.73-1.36,1.22-2.69,1.46-4.01
		c0.24-1.32,0.36-2.5,0.36-3.55c0-1.46-0.23-2.88-0.68-4.28c-0.45-1.39-1.13-2.62-2.03-3.7c-0.9-1.08-2.03-1.95-3.39-2.61
		C805.71,112.22,804.16,111.89,802.43,111.89z"/>
	<path class="st0" d="M912.96,146.4c0-10.15,1.95-19.71,5.84-28.68c3.89-8.97,9.26-16.82,16.11-23.57
		c6.85-6.74,14.89-12.06,24.14-15.95c9.24-3.89,19.25-5.84,30.03-5.84c5.91,0,11.21,0.45,15.9,1.36c4.69,0.9,8.71,1.93,12.04,3.08
		c3.34,1.15,5.96,2.22,7.87,3.23c1.91,1.01,2.97,1.62,3.18,1.82c0.83,0.63,1.25,1.36,1.25,2.19v24.71c0,0.49-0.14,0.87-0.42,1.15
		c-0.28,0.28-0.59,0.45-0.94,0.52c-0.35,0.07-0.7,0-1.04-0.21c-0.35-0.21-0.63-0.52-0.83-0.94c-1.32-3.13-2.9-6.5-4.74-10.11
		c-1.84-3.61-4.15-6.97-6.93-10.06c-2.78-3.09-6.1-5.65-9.96-7.66c-3.86-2.02-8.43-3.02-13.71-3.02c-6.74,0-12.5,1.76-17.26,5.27
		c-4.76,3.51-8.65,8.31-11.68,14.39c-3.02,6.08-5.23,13.21-6.62,21.38c-1.39,8.17-2.09,16.88-2.09,26.12
		c0,9.32,1.09,17.59,3.28,24.82c2.19,7.23,5.44,13.33,9.75,18.3c4.31,4.97,9.71,8.76,16.22,11.36c6.5,2.61,14.02,3.91,22.58,3.91
		c4.52,0,9.23-0.49,14.13-1.46c4.9-0.97,9.68-2.68,14.34-5.11c0.49-0.28,0.95-0.36,1.41-0.26c0.45,0.1,0.8,0.3,1.04,0.57
		c0.24,0.28,0.35,0.64,0.31,1.09c-0.04,0.45-0.3,0.92-0.78,1.41c-6.05,5.98-13.14,10.6-21.27,13.87c-8.13,3.27-17.35,4.9-27.63,4.9
		c-11.61,0-21.97-1.88-31.07-5.63c-9.11-3.75-16.81-8.92-23.1-15.49c-6.29-6.57-11.09-14.25-14.39-23.04
		C914.61,166.02,912.96,156.55,912.96,146.4z"/>
	<path class="st0" d="M1086.47,119.6c7.16,0,13.75,1.27,19.76,3.81c6.01,2.54,11.17,6.01,15.49,10.43
		c4.31,4.42,7.68,9.61,10.11,15.59c2.43,5.98,3.65,12.37,3.65,19.19c0,6.88-1.32,13.35-3.96,19.39c-2.64,6.05-6.26,11.35-10.84,15.9
		c-4.59,4.55-9.99,8.15-16.21,10.79c-6.22,2.64-12.91,3.96-20.07,3.96c-7.16,0-13.75-1.27-19.76-3.81
		c-6.01-2.54-11.18-6.01-15.49-10.43c-4.31-4.41-7.68-9.59-10.11-15.54c-2.43-5.94-3.65-12.36-3.65-19.24
		c0-6.81,1.32-13.26,3.96-19.34c2.64-6.08,6.26-11.4,10.84-15.95c4.59-4.55,9.99-8.15,16.21-10.79
		C1072.62,120.92,1079.31,119.6,1086.47,119.6z M1085.42,213.14c3.34,0,6.24-1.15,8.71-3.44c2.47-2.29,4.52-5.44,6.15-9.44
		c1.63-4,2.87-8.67,3.7-14.02c0.83-5.35,1.25-11.05,1.25-17.1c0-6.05-0.42-11.75-1.25-17.1c-0.83-5.35-2.07-10.03-3.7-14.02
		c-1.63-4-3.69-7.14-6.15-9.44c-2.47-2.29-5.37-3.44-8.71-3.44c-3.34,0-6.24,1.15-8.71,3.44c-2.47,2.29-4.54,5.44-6.2,9.44
		c-1.67,4-2.9,8.67-3.7,14.02c-0.8,5.36-1.2,11.05-1.2,17.1c0,6.05,0.4,11.75,1.2,17.1c0.8,5.35,2.03,10.03,3.7,14.02
		c1.67,4,3.74,7.14,6.2,9.44C1079.18,211.99,1082.09,213.14,1085.42,213.14z"/>
	<path class="st0" d="M1171.53,203.13c0,2.15-0.42,4.17-1.25,6.05c-0.83,1.88-1.96,3.53-3.39,4.95c-1.43,1.43-3.11,2.54-5.06,3.34
		c-1.95,0.8-4.03,1.2-6.26,1.2s-4.27-0.4-6.15-1.2c-1.88-0.8-3.49-1.88-4.85-3.23c-1.36-1.35-2.42-2.95-3.18-4.8
		c-0.77-1.84-1.15-3.84-1.15-6c0-2.08,0.42-4.08,1.25-5.99c0.83-1.91,1.96-3.56,3.39-4.95c1.42-1.39,3.11-2.5,5.06-3.34
		c1.95-0.83,4.03-1.25,6.26-1.25c2.22,0,4.27,0.4,6.15,1.2c1.88,0.8,3.49,1.88,4.85,3.24c1.36,1.35,2.41,2.97,3.18,4.85
		C1171.15,199.06,1171.53,201.04,1171.53,203.13z"/>
</g>
</svg>
